<svg xmlns="http://www.w3.org/2000/svg" xmlns:xlink="http://www.w3.org/1999/xlink" width="500" zoomAndPan="magnify" viewBox="0 0 375 374.999991" height="500" preserveAspectRatio="xMidYMid meet" version="1.0"><path fill="#8c52ff" d="M 46.925781 146.128906 C 52.242188 146.917969 56.289062 149.476562 58.910156 154.003906 C 72.230469 177.03125 85.5 200.082031 98.785156 223.128906 C 98.980469 223.460938 99.144531 223.816406 99.449219 224.410156 C 98.667969 224.410156 98.117188 224.410156 97.566406 224.410156 C 89.699219 224.410156 81.824219 224.207031 73.964844 224.476562 C 67.675781 224.695312 62.894531 222.105469 59.421875 217.269531 C 56.136719 212.691406 53.332031 207.75 50.460938 202.882812 C 44.742188 193.195312 39.132812 183.445312 33.453125 173.734375 C 32.8125 172.640625 31.941406 171.6875 31.304688 170.59375 C 28.085938 165.035156 27.886719 159.347656 31.238281 153.847656 C 34.734375 148.101562 40.054688 145.59375 46.925781 146.128906 Z M 46.925781 146.128906 " fill-opacity="1" fill-rule="nonzero"/><path fill="#8c52ff" d="M 110.070312 146.496094 C 114.59375 147.59375 117.957031 150.085938 120.203125 153.96875 C 133.554688 177.050781 146.871094 200.152344 160.203125 223.25 C 160.371094 223.539062 160.523438 223.839844 160.777344 224.308594 C 160.09375 224.347656 159.550781 224.402344 159.007812 224.402344 C 150.445312 224.414062 141.878906 224.417969 133.316406 224.414062 C 128.558594 224.414062 124.808594 222.136719 121.953125 218.648438 C 119.414062 215.542969 117.261719 212.082031 115.207031 208.617188 C 108.46875 197.25 101.839844 185.8125 95.199219 174.382812 C 93.675781 171.757812 91.796875 169.207031 90.921875 166.359375 C 89.148438 160.566406 90.589844 155.214844 94.859375 150.875 C 99.003906 146.660156 104.097656 145.171875 110.070312 146.496094 Z M 110.070312 146.496094 " fill-opacity="1" fill-rule="nonzero"/><path fill="#fdfefe" d="M 320 187.710938 C 316.371094 191.75 312.824219 195.699219 309.199219 199.734375 C 315.296875 206.511719 321.308594 213.191406 327.585938 220.164062 C 324.160156 220.164062 321.074219 220.171875 317.988281 220.160156 C 315.558594 220.148438 312.78125 220.839844 310.804688 219.886719 C 308.835938 218.933594 307.652344 216.332031 306.148438 214.4375 C 303.257812 210.792969 300.382812 207.136719 297.230469 203.140625 C 297.230469 209.027344 297.230469 214.480469 297.230469 220.046875 C 292.777344 220.046875 288.472656 220.046875 284.066406 220.046875 C 284.066406 198.046875 284.066406 176.042969 284.066406 153.945312 C 288.402344 153.945312 292.707031 153.945312 297.132812 153.945312 C 297.132812 167.996094 297.132812 181.976562 297.132812 195.953125 C 297.300781 196.085938 297.472656 196.214844 297.640625 196.347656 C 297.839844 195.964844 297.980469 195.539062 298.246094 195.207031 C 301.695312 190.863281 305.140625 186.519531 308.648438 182.222656 C 309.0625 181.71875 309.828125 181.222656 310.441406 181.214844 C 315.238281 181.132812 320.042969 181.171875 324.84375 181.179688 C 325.050781 181.179688 325.257812 181.226562 325.722656 181.28125 C 323.738281 183.511719 321.910156 185.566406 320 187.710938 Z M 320 187.710938 " fill-opacity="1" fill-rule="nonzero"/><path fill="#fefefe" d="M 330.164062 207.984375 C 330.164062 189.890625 330.164062 171.96875 330.164062 153.949219 C 334.589844 153.949219 338.898438 153.949219 343.378906 153.949219 C 343.378906 167.980469 343.378906 181.988281 343.378906 196.519531 C 346.277344 192.90625 348.847656 189.6875 351.433594 186.480469 C 352.84375 184.726562 353.953125 182.316406 355.789062 181.433594 C 357.628906 180.546875 360.207031 181.179688 362.460938 181.171875 C 365.523438 181.160156 368.585938 181.167969 372.058594 181.167969 C 366.410156 187.476562 360.972656 193.546875 355.425781 199.742188 C 361.488281 206.476562 367.503906 213.164062 373.621094 219.957031 C 373.355469 220.042969 373.167969 220.152344 372.980469 220.152344 C 367.949219 220.160156 362.917969 220.195312 357.886719 220.117188 C 357.28125 220.109375 356.507812 219.621094 356.105469 219.121094 C 351.949219 213.941406 347.851562 208.710938 343.488281 203.179688 C 343.488281 209.007812 343.488281 214.492188 343.488281 220.070312 C 338.980469 220.070312 334.671875 220.070312 330.164062 220.070312 C 330.164062 216.09375 330.164062 212.125 330.164062 207.984375 Z M 330.164062 207.984375 " fill-opacity="1" fill-rule="nonzero"/><path fill="#fcfdfd" d="M 205.414062 186.460938 C 205.414062 197.730469 205.414062 208.824219 205.414062 220.054688 C 201.019531 220.054688 196.726562 220.054688 192.304688 220.054688 C 192.304688 218.8125 192.304688 217.554688 192.304688 215.878906 C 187.984375 220.292969 182.824219 221.519531 177.277344 221.046875 C 171.570312 220.5625 167 217.765625 163.652344 213.109375 C 157.574219 204.65625 158.730469 192.957031 166.027344 185.703125 C 172.214844 179.554688 184.519531 178.03125 192.21875 185.632812 C 192.21875 184.132812 192.21875 182.796875 192.21875 181.363281 C 196.644531 181.363281 200.894531 181.363281 205.414062 181.363281 C 205.414062 182.984375 205.414062 184.636719 205.414062 186.460938 M 178.058594 208.96875 C 184.390625 212.796875 191.664062 208.800781 192.246094 201.175781 C 192.527344 197.480469 189.996094 193.316406 186.554688 191.8125 C 183.027344 190.273438 179.066406 191.132812 176.441406 194.007812 C 172.441406 198.382812 173.058594 204.859375 178.058594 208.96875 Z M 178.058594 208.96875 " fill-opacity="1" fill-rule="nonzero"/><path fill="#fdfdfd" d="M 217.511719 201.613281 C 215 194.964844 212.542969 188.441406 210.09375 181.914062 C 210.035156 181.757812 210.046875 181.574219 209.996094 181.167969 C 213.417969 181.167969 216.796875 181.167969 220.171875 181.167969 C 223.046875 181.171875 223.0625 181.167969 223.984375 183.941406 C 226.621094 191.867188 229.238281 199.796875 231.863281 207.722656 C 231.945312 207.964844 232.039062 208.203125 232.300781 208.925781 C 233.449219 205.5 234.453125 202.535156 235.433594 199.5625 C 237.324219 193.816406 239.183594 188.0625 241.128906 182.335938 C 241.292969 181.851562 241.996094 181.230469 242.464844 181.222656 C 246.507812 181.132812 250.550781 181.171875 254.890625 181.171875 C 249.953125 194.25 245.085938 207.144531 240.199219 220.097656 C 235.003906 220.097656 229.816406 220.097656 224.480469 220.097656 C 222.183594 213.996094 219.875 207.867188 217.511719 201.613281 Z M 217.511719 201.613281 " fill-opacity="1" fill-rule="nonzero"/><path fill="#8c52ff" d="M 3.980469 220.308594 C 0.96875 215.566406 0.75 210.78125 3.28125 205.925781 C 7.21875 198.378906 12.523438 192.003906 19.648438 187.238281 C 20.15625 186.894531 20.703125 186.609375 21.519531 186.128906 C 21.425781 186.722656 21.449219 187 21.339844 187.214844 C 18.453125 192.886719 19.414062 197.910156 24.234375 202.273438 C 31.894531 209.203125 29.722656 221.5625 20.183594 225.308594 C 14.355469 227.597656 8.199219 225.730469 3.980469 220.308594 Z M 3.980469 220.308594 " fill-opacity="1" fill-rule="nonzero"/><path fill="#ffffff" d="M 272.914062 214.582031 C 272.914062 216.484375 272.914062 218.210938 272.914062 220.050781 C 268.527344 220.050781 264.222656 220.050781 259.804688 220.050781 C 259.804688 207.160156 259.804688 194.246094 259.804688 181.25 C 264.148438 181.25 268.453125 181.25 272.914062 181.25 C 272.914062 192.347656 272.914062 203.378906 272.914062 214.582031 Z M 272.914062 214.582031 " fill-opacity="1" fill-rule="nonzero"/><path fill="#fcfdfd" d="M 266.875 160.242188 C 270.691406 160.832031 273.386719 163.3125 273.894531 166.578125 C 274.453125 170.164062 272.734375 173.578125 269.535156 175.003906 C 266.589844 176.3125 263.746094 176 261.289062 173.886719 C 258.722656 171.679688 257.960938 168.8125 258.960938 165.59375 C 259.925781 162.488281 262.160156 160.773438 265.351562 160.289062 C 265.804688 160.222656 266.269531 160.246094 266.875 160.242188 Z M 266.875 160.242188 " fill-opacity="1" fill-rule="nonzero"/></svg>